<svg width="60" height="29" viewBox="0 0 60 29" fill="none" xmlns="http://www.w3.org/2000/svg">
<g clip-path="url(#clip0_291_954)">
<path d="M0 15.1539C0 12.6128 0.757468 10.7071 2.2724 9.43659C3.78734 8.03904 5.9335 7.40379 8.58464 7.40379C10.2258 7.40379 11.6145 7.65789 12.7507 8.16609C13.7607 8.67429 14.3919 9.30954 14.3919 10.3259C14.3919 10.8341 14.2656 11.2153 14.0132 11.5964C13.7607 11.9776 13.5082 12.3587 13.3819 12.3587C12.877 12.1046 12.372 11.9776 11.7408 11.7235C11.1095 11.5964 10.3521 11.4694 9.46835 11.4694C6.31223 11.4694 4.7973 13.121 4.7973 16.4244V28.113H0.252489C0 28.24 0 15.1539 0 15.1539ZM30.0462 22.1416H22.3453C20.1991 22.1416 18.6842 21.7605 17.548 21.1252C16.4118 20.3629 15.9068 19.2195 15.9068 17.6949C15.9068 16.5514 16.1593 15.2809 16.6643 14.0104C17.1693 12.7399 17.8005 11.4694 18.6842 10.1989C19.5679 8.92839 20.4516 7.78494 21.5878 6.51444C22.724 5.37099 23.8602 4.35458 24.9964 3.46523C26.1326 2.57588 27.3951 1.94063 28.5313 1.30538C29.6675 0.797178 30.8037 0.543077 31.6874 0.543077C32.5711 0.543077 33.3286 0.670128 33.8336 0.797178C34.3386 1.05128 34.591 1.17833 34.7173 1.17833V17.949H35.9797C37.6209 17.949 38.3784 18.5842 38.3784 19.9818C38.3784 20.49 38.2521 20.9982 38.1259 21.3793C37.9996 21.7605 37.8734 22.0146 37.7472 22.1416H34.7173V28.24H30.1725L30.0462 22.1416ZM30.0462 17.949V5.24394C29.1625 5.75214 28.1526 6.38739 27.0164 7.27674C25.8802 8.16609 24.8702 9.18249 23.9865 10.1989C23.1028 11.2153 22.2191 12.3587 21.5878 13.5022C20.9566 14.6457 20.7041 15.535 20.7041 16.4244C20.7041 17.0596 20.9566 17.5678 21.4616 17.6949C21.9666 17.8219 22.5978 17.949 23.3553 17.949H30.0462ZM40.3604 24.234C40.738 23.9803 41.3675 23.5996 42.1229 22.9652L44.7667 21.062C45.7739 20.3008 46.6551 19.6664 47.6623 18.9051C48.6694 18.1438 49.4248 17.5094 50.0543 16.875C51.565 15.4793 52.824 14.2105 53.5793 12.9417C54.4606 11.6729 54.8383 10.4041 54.8383 8.88158C54.8383 8.24718 54.7124 7.61278 54.4606 7.10526C54.2088 6.47086 53.8311 5.96335 53.4535 5.58271C52.9499 5.07519 52.4463 4.82143 51.6909 4.44079C50.9356 4.18703 50.0543 4.06015 49.0471 4.06015C48.04 4.06015 47.1587 4.18703 46.4033 4.44079C45.648 4.69455 45.0185 5.07519 44.5149 5.45583C44.0113 5.83647 43.6336 6.2171 43.3818 6.72462C43.1301 7.10526 42.8783 7.4859 42.7524 7.73966C42.5006 7.73966 42.2488 7.61278 41.997 7.4859C41.7452 7.35902 41.4934 7.23214 41.2416 6.97838C40.9898 6.72462 40.738 6.47086 40.6122 6.21711C40.4863 5.96335 40.3604 5.58271 40.3604 5.32895C40.3604 4.94831 40.4863 4.56767 40.6122 4.18703C40.738 3.80639 40.9898 3.55263 41.1157 3.17199C41.2416 3.04511 41.4934 2.66447 41.8711 2.28383C42.2488 1.9032 42.7524 1.52256 43.5077 1.2688C44.1372 0.888158 45.0185 0.634399 46.0256 0.380639C47.0328 0.12688 48.1659 0 49.5507 0C51.1873 0 52.6981 0.253759 53.957 0.634398C55.216 1.14192 56.349 1.64944 57.2303 2.41071C58.1116 3.17199 58.7411 4.06015 59.2446 5.20207C59.7482 6.21711 59.8741 7.35902 59.8741 8.62782C59.8741 9.51598 59.7482 10.4041 59.4964 11.2923C59.2446 12.1805 58.9928 12.8148 58.6152 13.5761C58.2375 14.3374 57.8598 14.8449 57.4821 15.4793C56.9785 16.1137 56.6008 16.6212 56.0973 17.1288C55.5937 17.6363 54.9642 18.2707 54.2088 18.9051C53.4535 19.6664 52.5722 20.3008 51.6909 21.062C50.8097 21.8233 50.0543 22.4577 49.2989 22.9652C48.5435 23.5996 47.9141 23.9803 47.5364 24.234H60V28.4211H40.3604V24.234Z" fill="white"/>
</g>
<defs>
<clipPath id="clip0_291_954">
<rect width="60" height="28.4211" fill="white"/>
</clipPath>
</defs>
</svg>
